<svg width="26" height="26" viewBox="0 0 26 26" fill="none" xmlns="http://www.w3.org/2000/svg">
<path d="M13 1.625C10.7502 1.625 8.551 2.29213 6.68039 3.54203C4.80978 4.79193 3.35182 6.56847 2.49088 8.64698C1.62993 10.7255 1.40467 13.0126 1.84357 15.2192C2.28248 17.4257 3.36584 19.4525 4.95667 21.0433C6.54749 22.6342 8.57432 23.7175 10.7809 24.1564C12.9874 24.5953 15.2745 24.3701 17.353 23.5091C19.4315 22.6482 21.2081 21.1902 22.458 19.3196C23.7079 17.449 24.375 15.2498 24.375 13C24.3716 9.98422 23.172 7.09294 21.0395 4.96046C18.9071 2.82798 16.0158 1.62844 13 1.625ZM22.7094 12.1875H17.9075C18.1108 10.0849 18.8795 8.07661 20.1321 6.37569C21.6196 7.96848 22.5275 10.0157 22.7094 12.1875ZM13.8125 12.1875V3.29063C15.6706 3.44459 17.4446 4.1325 18.9207 5.2715C17.4006 7.27857 16.4854 9.67797 16.2825 12.1875H13.8125ZM12.1875 12.1875H9.71751C9.51465 9.67797 8.59937 7.27857 7.07932 5.2715C8.55553 4.13279 10.3295 3.44516 12.1875 3.29144V12.1875ZM12.1875 13.8125V22.7094C10.3294 22.5554 8.55544 21.8675 7.07932 20.7285C8.59937 18.7214 9.51465 16.322 9.71751 13.8125H12.1875ZM13.8125 13.8125H16.2825C16.4856 16.3221 17.4012 18.7215 18.9215 20.7285C17.4451 21.8674 15.6708 22.555 13.8125 22.7086V13.8125ZM5.86625 6.37569C7.11943 8.07644 7.88873 10.0848 8.0925 12.1875H3.29144C3.47288 10.0159 4.38016 7.9687 5.86707 6.37569M3.29063 13.8125H8.0925C7.88921 15.9151 7.12047 17.9234 5.86788 19.6243C4.38038 18.0315 3.47252 15.9843 3.29063 13.8125ZM20.1338 19.6243C18.8806 17.9236 18.1113 15.9152 17.9075 13.8125H22.7078C22.5263 15.9841 21.619 18.0313 20.1321 19.6243" fill="#F2F3F4"/>
</svg>
