<svg width="2600" height="2169" viewBox="0 0 2600 2169" fill="none" xmlns="http://www.w3.org/2000/svg">
<g filter="url(#filter0_d_837_186)">
<path d="M2030.46 1395.8C2068.12 1395.37 2100.7 1397.2 2136.18 1410.68C2253.34 1455.22 2312.26 1555.13 2315.15 1668.3C2318.83 1813.19 2216.64 1965.54 2047.63 1966.5L1462.08 1965.08L1299.61 1964.72C1262.53 1964.67 1218.42 1966.7 1182.56 1960.39C1088.88 1943.91 1011.19 1867.21 982.922 1784.25C971.683 1751.26 969.231 1707.28 968.045 1672.73L1123.67 1719.79C1136.44 1758.25 1187.01 1789.43 1229.36 1789.48C1290.34 1789.57 1351.74 1789.69 1412.9 1789.85L1800.63 1790.77L1977.88 1791.24L2030.46 1791.35C2039.16 1791.36 2054.5 1791.94 2062.62 1790.66C2161.24 1775.04 2185.16 1647.29 2119.24 1586.14C2083.81 1553.28 2051.89 1558.36 2005.86 1558.25L1890 1558.02L1341.86 1558.24C1333.5 1558.25 1328.24 1549.3 1332.28 1541.97L1402.86 1414.01C1409.05 1402.78 1420.86 1395.8 1433.66 1395.8L2030.46 1395.8Z" fill="url(#paint0_linear_837_186)"/>
<path d="M1123.67 1719.79L968.045 1672.73C969.231 1707.28 971.683 1751.26 982.922 1784.25C1011.19 1867.21 1088.88 1943.91 1182.56 1960.39C1218.42 1966.7 1262.53 1964.67 1299.61 1964.72L1462.08 1965.08L2047.63 1966.5C2216.64 1965.54 2318.83 1813.19 2315.15 1668.3C2312.26 1555.13 2253.34 1455.22 2136.18 1410.68C2100.7 1397.2 2068.12 1395.37 2030.46 1395.8L1433.66 1395.8C1420.86 1395.8 1409.05 1402.78 1402.86 1414.01L1332.28 1541.97C1328.24 1549.3 1333.5 1558.25 1341.86 1558.24L1890 1558.02L2005.86 1558.25C2051.89 1558.36 2083.81 1553.28 2119.24 1586.14C2185.16 1647.29 2161.24 1775.04 2062.62 1790.66C2054.5 1791.94 2039.16 1791.36 2030.46 1791.35L1977.88 1791.24L1800.63 1790.77L1412.9 1789.85C1351.74 1789.69 1290.34 1789.57 1229.36 1789.48C1187.01 1789.43 1136.44 1758.25 1123.67 1719.79ZM982.922 1784.25L1123.67 1719.79" stroke="url(#paint1_linear_837_186)" stroke-width="38"/>
<g clip-path="url(#clip0_837_186)">
<path d="M1206.28 129.671L1276.29 108.673C1274.64 110.373 1274.72 109.69 1274.26 111.517C1306.57 103.642 1340.09 102.218 1373.2 103.87C1497.52 110.075 1614.77 179.192 1680.7 284.764C1691.93 302.737 1703.46 323.047 1709.81 343.325C1710.62 345.908 1711.97 345.125 1713.68 344.792L1734.55 414.354C1733.97 414.831 1732.45 416.31 1732.62 417.081C1748.23 489.106 1739.98 566.725 1712.94 635.196C1701.11 665.171 1683.48 696.083 1667.79 725.358L1595.34 859.906L1497.65 1041.51C1472.08 1088.72 1448.72 1137.75 1414.67 1178.68C1370.78 1231.44 1317.27 1270.33 1252.52 1292.76C1240.32 1296.99 1228.87 1302.72 1216.05 1306.4C1137.04 1328.35 1053.07 1324.25 976.587 1294.69C930.521 1277.03 894.72 1259.12 878.61 1209.37C850.779 1123.44 933.828 1045.47 1018.02 1072.45C1031 1076.6 1042.9 1083.33 1055.57 1088.24C1103.83 1106.44 1161.91 1100.43 1204.8 1071.5C1240.28 1048.43 1252.47 1026.91 1271.58 991.168L1292.99 951.746L1381.72 787.276L1461.38 639.757C1476.19 612.482 1497.29 577.733 1507.88 549.34C1539.19 465.476 1493.22 366.55 1408.13 336.778C1340.85 313.237 1266.76 333.696 1221.5 389.26C1209.69 403.767 1200.53 422.741 1191.72 439.126L1162.15 493.9L1084.73 637.623C1054.44 693.987 1059.81 691.118 994.658 686.638C987.032 686.116 966.507 687.668 958.131 688.237C934.167 689.925 910.37 693.51 886.97 698.954C872.187 702.42 856.498 707.3 841.816 710.295C823.157 714.101 805.042 690.781 813.24 672.754C820.846 656.025 830.797 638.787 839.783 622.112L894.54 520.848L972.221 376.844C989.692 344.425 1006.74 310.78 1026.58 279.806C1068.97 213.649 1132.69 161.484 1205.34 131.845C1205.65 131.122 1205.97 130.396 1206.28 129.671Z" fill="url(#paint2_linear_837_186)"/>
<path d="M374.494 1675.38C374.912 1674.72 375.332 1674.07 375.75 1673.41C364.09 1612.69 366.522 1551.46 383.127 1491.75C397.482 1440.14 424.366 1394.67 449.664 1347.64L522.391 1212.27L607.941 1053.2C641.524 990.849 668.723 932.91 719.5 882.038C839.163 762.151 1035.04 733.367 1181.9 818.933C1267.09 872.632 1246.45 998.721 1145.75 1019.57C1095.59 1029.96 1076.62 1006.3 1031.72 994.942C969.841 979.284 892.935 1007.12 857.861 1061.38C840.45 1088.32 825.017 1120.06 809.688 1148.65L726.141 1303.75L642.911 1457.54C628.205 1484.79 611.742 1512.78 599.837 1541.44C590.27 1564.47 588.811 1595.92 592.542 1620.67C594.113 1636.98 597.525 1646.12 603.441 1660.68C616.105 1691.84 635.555 1716.65 663.482 1735.54C710.021 1767.04 768.744 1772.11 820.276 1750.37C849.745 1737.94 876.506 1717.8 894.295 1690.41C908.578 1667.57 922.702 1639.76 935.784 1615.4L1011.03 1474.87C1022.62 1453.28 1036.29 1423.32 1051.74 1405.15C1057.77 1403.03 1063.49 1400.62 1069.97 1400.69C1086.98 1400.89 1103.71 1402.79 1120.75 1402.51C1166 1401.78 1210.54 1394.37 1253.97 1381.76C1263.53 1378.99 1271.21 1376.13 1280.85 1381.13C1302.26 1391.96 1299.4 1410.27 1289.74 1428.26C1277.72 1450.64 1265.7 1472.8 1253.7 1495.06L1170.29 1649.48L1120.62 1741.44C1100.59 1778.45 1083 1813.11 1055.52 1845.82C1030.56 1875.52 1000.51 1901.94 968.187 1923.5C961.001 1928.28 951.83 1932.27 943.856 1937.64C933.824 1944.39 917.352 1949.84 906.046 1954.83C903.297 1956.04 903.626 1955.04 904.035 1956.87L904.383 1958.5L832.367 1980.1L831.815 1978.74L832.154 1977.21C759.737 1994.57 675.391 1984.35 607.136 1955.77C510.94 1915.6 434.961 1838.39 396.321 1741.56L394.442 1741.89L374.494 1675.38Z" fill="url(#paint3_linear_837_186)"/>
</g>
</g>
<defs>
<filter id="filter0_d_837_186" x="-13.9992" y="-5.99946" width="2691.6" height="2174.75" filterUnits="userSpaceOnUse" color-interpolation-filters="sRGB">
<feFlood flood-opacity="0" result="BackgroundImageFix"/>
<feColorMatrix in="SourceAlpha" type="matrix" values="0 0 0 0 0 0 0 0 0 0 0 0 0 0 0 0 0 0 127 0" result="hardAlpha"/>
<feOffset dx="30" dy="40"/>
<feGaussianBlur stdDeviation="23.9"/>
<feComposite in2="hardAlpha" operator="out"/>
<feColorMatrix type="matrix" values="0 0 0 0 0 0 0 0 0 0 0 0 0 0 0 0 0 0 0.03 0"/>
<feBlend mode="normal" in2="BackgroundImageFix" result="effect1_dropShadow_837_186"/>
<feBlend mode="normal" in="SourceGraphic" in2="effect1_dropShadow_837_186" result="shape"/>
</filter>
<linearGradient id="paint0_linear_837_186" x1="1653.4" y1="1381.92" x2="1632.56" y2="1978.74" gradientUnits="userSpaceOnUse">
<stop stop-color="#E7FA4F"/>
<stop offset="1" stop-color="#50C9C6"/>
</linearGradient>
<linearGradient id="paint1_linear_837_186" x1="1653.4" y1="1381.92" x2="1632.56" y2="1978.74" gradientUnits="userSpaceOnUse">
<stop stop-color="#E7FA4F"/>
<stop offset="1" stop-color="#50C9C6"/>
</linearGradient>
<linearGradient id="paint2_linear_837_186" x1="1110.56" y1="158.38" x2="1435.18" y2="1240.69" gradientUnits="userSpaceOnUse">
<stop stop-color="#E7FA4F"/>
<stop offset="1" stop-color="#50C9C6"/>
</linearGradient>
<linearGradient id="paint3_linear_837_186" x1="673.602" y1="848.629" x2="998.063" y2="1930.4" gradientUnits="userSpaceOnUse">
<stop stop-color="#E7FA4F"/>
<stop offset="1" stop-color="#50C9C6"/>
</linearGradient>
<clipPath id="clip0_837_186">
<rect width="1665" height="1665" fill="white" transform="translate(17.8008 486.138) rotate(-16.6958)"/>
</clipPath>
</defs>
</svg>
