<svg width="26" height="26" viewBox="0 0 26 26" fill="none" xmlns="http://www.w3.org/2000/svg">
<path d="M22.271 17.1631L23.0219 16.8287C22.8771 16.5034 22.5392 16.3083 22.185 16.3455L22.271 17.1631ZM15.5573 23.2081L14.7532 23.0372C14.6791 23.3856 14.8378 23.742 15.1462 23.9201L15.5573 23.2081ZM3.29573 8.17938L2.5598 7.81311H2.5598L3.29573 8.17938ZM3.10999 17.4278L2.35991 17.7642V17.7642L3.10999 17.4278ZM22.6295 17.9683L23.3597 18.3459L22.6295 17.9683ZM11.3753 5.86244L10.8921 6.52748L15.4092 9.80935L15.8924 9.1443L16.3756 8.47926L11.8585 5.19739L11.3753 5.86244ZM15.8924 9.1443L15.1106 8.89028L13.3852 14.2004L14.167 14.4545L14.9488 14.7085L16.6742 9.39833L15.8924 9.1443ZM14.167 14.4545V13.6324H8.58356V14.4545V15.2765H14.167V14.4545ZM8.58356 14.4545L9.36536 14.2004L7.63999 8.89028L6.85818 9.1443L6.07637 9.39833L7.80175 14.7085L8.58356 14.4545ZM6.85818 9.1443L7.34136 9.80935L11.8585 6.52748L11.3753 5.86244L10.8921 5.19739L6.375 8.47926L6.85818 9.1443ZM22.271 17.1631L22.185 16.3455L16.6322 16.9292L16.7181 17.7467L16.804 18.5643L22.3569 17.9806L22.271 17.1631ZM16.7181 17.7467L15.914 17.5758L14.7532 23.0372L15.5573 23.2081L16.3613 23.3791L17.5222 17.9176L16.7181 17.7467ZM11.3753 5.86244H12.1973V2.30027H11.3753H10.5532V5.86244H11.3753ZM15.8924 9.1443L16.1073 9.93775L19.9015 8.90995L19.6866 8.1165L19.4717 7.32306L15.6774 8.35086L15.8924 9.1443ZM14.167 14.4545L13.5172 14.958L16.0683 18.2502L16.7181 17.7467L17.3679 17.2432L14.8168 13.951L14.167 14.4545ZM8.58356 14.4545L7.92309 13.9651L5.48351 17.2573L6.14398 17.7467L6.80445 18.2361L9.24403 14.9439L8.58356 14.4545ZM20.6871 5.51021L19.9196 5.21561L18.9192 7.82191L19.6866 8.1165L20.454 8.41109L21.4545 5.8048L20.6871 5.51021ZM19.6866 8.1165L19.2905 8.8368L23.0708 10.9158L23.4669 10.1955L23.863 9.47523L20.0827 7.39621L19.6866 8.1165ZM13.0001 2.16669V2.98873C17.6317 2.98873 21.5307 6.13472 22.6727 10.4078L23.4669 10.1955L24.2611 9.98327C22.9316 5.00908 18.3948 1.34465 13.0001 1.34465V2.16669ZM23.4669 10.1955L22.6727 10.4078C22.8935 11.2337 23.0114 12.1024 23.0114 13H23.8334H24.6555C24.6555 11.9578 24.5185 10.9464 24.2611 9.98327L23.4669 10.1955ZM6.85818 9.1443L7.07309 8.35085L3.51064 7.38594L3.29573 8.17938L3.08082 8.97283L6.64327 9.93775L6.85818 9.1443ZM2.16675 13H2.98879C2.98879 11.3981 3.36442 9.88628 4.03166 8.54566L3.29573 8.17938L2.5598 7.81311C1.78184 9.3762 1.34471 11.1382 1.34471 13H2.16675ZM3.29573 8.17938L4.03166 8.54566C5.67186 5.25016 9.07263 2.98873 13.0001 2.98873V2.16669V1.34465C8.42505 1.34465 4.46722 3.98072 2.5598 7.81311L3.29573 8.17938ZM3.10999 17.4278L3.02407 18.2454L6.05805 18.5643L6.14398 17.7467L6.2299 16.9292L3.19592 16.6103L3.10999 17.4278ZM3.10999 17.4278L3.86008 17.0915C3.30046 15.8434 2.98879 14.4592 2.98879 13H2.16675H1.34471C1.34471 14.6956 1.70728 16.3087 2.35991 17.7642L3.10999 17.4278ZM13.0001 23.8334V23.0113C10.9725 23.0113 9.08796 22.4094 7.51243 21.3748L7.06119 22.0619L6.60996 22.749C8.44535 23.9543 10.6421 24.6554 13.0001 24.6554V23.8334ZM7.06119 22.0619L7.51243 21.3748C5.92114 20.3298 4.64569 18.8436 3.86008 17.0915L3.10999 17.4278L2.35991 17.7642C3.27496 19.8049 4.75904 21.5335 6.60996 22.749L7.06119 22.0619ZM6.14398 17.7467L5.3399 17.9176L6.25712 22.2328L7.06119 22.0619L7.86527 21.891L6.94805 17.5758L6.14398 17.7467ZM22.6295 17.9683L23.3805 17.634L23.0219 16.8287L22.271 17.1631L21.52 17.4974L21.8785 18.3027L22.6295 17.9683ZM23.8334 13H23.0114C23.0114 14.6564 22.6097 16.2166 21.8993 17.5908L22.6295 17.9683L23.3597 18.3459C24.188 16.7438 24.6555 14.9253 24.6555 13H23.8334ZM22.6295 17.9683L21.8993 17.5908C20.639 20.0285 18.4066 21.8817 15.718 22.6382L15.9407 23.4295L16.1633 24.2208C19.2971 23.339 21.8936 21.1818 23.3597 18.3459L22.6295 17.9683ZM15.9407 23.4295L15.718 22.6382C14.8547 22.8811 13.9433 23.0113 13.0001 23.0113V23.8334V24.6554C14.0953 24.6554 15.1565 24.5041 16.1633 24.2208L15.9407 23.4295ZM15.5573 23.2081L15.1462 23.9201L15.5296 24.1414L15.9407 23.4295L16.3517 22.7176L15.9683 22.4962L15.5573 23.2081Z" fill="#F2F3F4"/>
</svg>
