<svg width="26" height="26" viewBox="0 0 26 26" fill="none" xmlns="http://www.w3.org/2000/svg">
<path d="M4.33325 18.4167L9.74992 19.5L10.5624 17.875M16.2499 22.75V18.4167L11.9166 15.1667L12.9999 8.66667M12.9999 4.33333C12.9999 4.62065 13.1141 4.8962 13.3172 5.09937C13.5204 5.30253 13.7959 5.41667 14.0833 5.41667C14.3706 5.41667 14.6461 5.30253 14.8493 5.09937C15.0524 4.8962 15.1666 4.62065 15.1666 4.33333C15.1666 4.04602 15.0524 3.77047 14.8493 3.5673C14.6461 3.36414 14.3706 3.25 14.0833 3.25C13.7959 3.25 13.5204 3.36414 13.3172 3.5673C13.1141 3.77047 12.9999 4.04602 12.9999 4.33333Z" stroke="#F2F3F4" stroke-width="2" stroke-linecap="round" stroke-linejoin="round"/>
<path d="M7.58325 13V9.75002L12.9999 8.66669L16.2499 11.9167L19.4999 13" stroke="#F2F3F4" stroke-width="2" stroke-linecap="round" stroke-linejoin="round"/>
</svg>
