<svg width="22" height="20" viewBox="0 0 22 20" fill="none" xmlns="http://www.w3.org/2000/svg">
<path d="M6.65059 15.3606C6.1992 15.1858 5.79367 14.9186 5.434 14.5589L1.06492 10.1833C0.705255 9.82367 0.438032 9.42283 0.263254 8.98083C0.0884767 8.53883 0.000726662 8.07914 4.43989e-06 7.60175C-0.000717782 7.12436 0.0866712 6.66503 0.262171 6.22375C0.437671 5.78247 0.704893 5.38164 1.06384 5.02125L3.97909 2.10708C4.33875 1.74669 4.7432 1.47911 5.19242 1.30433C5.64164 1.12956 6.09809 1.04217 6.56176 1.04217C7.02542 1.04217 7.47789 1.12956 7.91917 1.30433C8.36045 1.47911 8.76128 1.74633 9.12167 2.106L13.4962 6.47508C13.8558 6.83475 14.1231 7.23703 14.2978 7.68192C14.4733 8.12608 14.5611 8.5865 14.5611 9.06317C14.5611 9.53983 14.4733 9.99917 14.2978 10.4412C14.1223 10.8832 13.8551 11.284 13.4962 11.6437L12.4042 12.7357L18.0126 18.3441C18.118 18.4495 18.1744 18.5748 18.1816 18.72C18.1888 18.8652 18.1325 18.9973 18.0126 19.1165C17.8927 19.2357 17.7638 19.2956 17.6258 19.2963C17.4879 19.2971 17.3593 19.2371 17.2402 19.1165L11.6523 13.4875L10.5809 14.5589C10.2213 14.9186 9.82078 15.1858 9.3795 15.3606C8.93895 15.5354 8.48684 15.6227 8.02317 15.6227C7.5595 15.6227 7.10162 15.5354 6.6495 15.3606M8.0015 14.5611C8.32867 14.5611 8.65042 14.4975 8.96675 14.3704C9.28381 14.2433 9.56439 14.0573 9.8085 13.8125L12.7292 10.8712C12.974 10.6307 13.16 10.3491 13.2871 10.0262C13.4135 9.70342 13.4767 9.38058 13.4767 9.05775C13.4767 8.73492 13.4135 8.41353 13.2871 8.09358C13.1607 7.77364 12.9747 7.49197 12.7292 7.24858L8.35467 2.8795C8.11417 2.63467 7.83756 2.44761 7.52484 2.31833C7.21284 2.18978 6.89362 2.1255 6.56717 2.1255C6.24073 2.1255 5.92114 2.19014 5.60842 2.31942C5.2957 2.44797 5.01728 2.63467 4.77317 2.8795L1.859 5.79367C1.61417 6.0385 1.4282 6.31908 1.30109 6.63542C1.17398 6.95175 1.11042 7.2735 1.11042 7.60067C1.11042 7.92783 1.17398 8.25139 1.30109 8.57133C1.4282 8.89128 1.61417 9.17294 1.859 9.41633L6.21292 13.8125C6.4527 14.0573 6.72895 14.2433 7.04167 14.3704C7.35439 14.4975 7.67434 14.5618 8.0015 14.5611ZM3.81117 8.73275C3.97873 8.73275 4.11848 8.67822 4.23042 8.56917C4.34237 8.45939 4.39834 8.32072 4.39834 8.15317C4.39834 7.98561 4.34345 7.84622 4.23367 7.735C4.12389 7.62378 3.98523 7.5678 3.81767 7.56708C3.65012 7.56636 3.51073 7.62089 3.3995 7.73067C3.28828 7.84044 3.23231 7.97911 3.23159 8.14667C3.23087 8.31422 3.28539 8.45397 3.39517 8.56592C3.50495 8.67786 3.64362 8.73383 3.81117 8.73383M5.46109 7.08933C5.62864 7.08933 5.76839 7.0348 5.88034 6.92575C5.99228 6.81597 6.04825 6.6773 6.04825 6.50975C6.04825 6.34219 5.99337 6.20244 5.88359 6.0905C5.77381 5.97855 5.63514 5.92258 5.46759 5.92258C5.30075 5.92258 5.16137 5.97747 5.04942 6.08725C4.93748 6.19703 4.88151 6.33569 4.88151 6.50325C4.88151 6.67081 4.93639 6.81056 5.04617 6.9225C5.15523 7.03372 5.29353 7.08933 5.46109 7.08933ZM5.63009 10.5733C5.79764 10.5733 5.93739 10.5184 6.04934 10.4087C6.16128 10.2989 6.21725 10.1602 6.21725 9.99267C6.21725 9.82511 6.16237 9.68211 6.05259 9.56367C5.94281 9.44522 5.80414 9.386 5.63659 9.386C5.46903 9.386 5.32928 9.44522 5.21734 9.56367C5.10612 9.68211 5.05051 9.82511 5.05051 9.99267C5.05051 10.1602 5.10503 10.2989 5.21409 10.4087C5.32314 10.5184 5.46181 10.5733 5.63009 10.5733ZM7.08392 5.43833C7.25148 5.43833 7.39123 5.38381 7.50317 5.27475C7.61512 5.16569 7.67109 5.02703 7.67109 4.85875C7.67109 4.69047 7.6162 4.55072 7.50642 4.4395C7.39664 4.32828 7.25798 4.27231 7.09042 4.27158C6.92287 4.27086 6.78348 4.32575 6.67226 4.43625C6.56103 4.54675 6.50506 4.68542 6.50434 4.85225C6.50362 5.01908 6.55851 5.15847 6.669 5.27042C6.77951 5.38236 6.91781 5.43833 7.08392 5.43833ZM7.28 8.92775C7.44756 8.92775 7.58731 8.87322 7.69926 8.76417C7.81048 8.65439 7.86609 8.51572 7.86609 8.34817C7.86609 8.18061 7.81156 8.04086 7.7025 7.92892C7.59345 7.81697 7.45478 7.76136 7.2865 7.76208C7.11823 7.7628 6.97848 7.81733 6.86725 7.92567C6.75603 8.034 6.70006 8.17267 6.69934 8.34167C6.69862 8.51067 6.75351 8.65042 6.86401 8.76092C6.97451 8.87142 7.11317 8.92703 7.28 8.92775ZM7.4425 12.3912C7.61006 12.3912 7.75306 12.3363 7.8715 12.2265C7.99067 12.1167 8.05025 11.9781 8.05025 11.8105C8.05025 11.6429 7.99067 11.5032 7.8715 11.3912C7.75234 11.2793 7.60934 11.2237 7.4425 11.2244C7.27567 11.2251 7.137 11.2797 7.0265 11.388C6.91601 11.4963 6.86112 11.635 6.86184 11.804C6.86256 11.973 6.91745 12.1127 7.0265 12.2232C7.13628 12.3352 7.27495 12.3912 7.4425 12.3912ZM8.92342 7.27783C9.09098 7.27783 9.23073 7.21861 9.34267 7.10017C9.45462 6.98172 9.51059 6.83872 9.51059 6.67117C9.51059 6.50361 9.4557 6.36494 9.34592 6.25517C9.23614 6.14539 9.09748 6.0905 8.92992 6.0905C8.76237 6.0905 8.62298 6.14539 8.51175 6.25517C8.40053 6.36494 8.34456 6.50361 8.34384 6.67117C8.34312 6.83872 8.39764 6.98172 8.50742 7.10017C8.6172 7.21861 8.75587 7.27783 8.92342 7.27783ZM9.09242 10.7412C9.25998 10.7412 9.39973 10.6864 9.51167 10.5766C9.62362 10.4668 9.67923 10.3281 9.6785 10.1606C9.67778 9.99303 9.62325 9.85328 9.51492 9.74133C9.40659 9.62939 9.26792 9.57378 9.09892 9.5745C8.92992 9.57522 8.79017 9.62975 8.67967 9.73808C8.56917 9.84642 8.51356 9.98508 8.51284 10.1541C8.51212 10.3231 8.56664 10.4628 8.67642 10.5733C8.7862 10.6838 8.92486 10.7398 9.09242 10.7412ZM10.7218 9.09025C10.8893 9.09025 11.0323 9.03572 11.1508 8.92667C11.2699 8.81689 11.3295 8.67822 11.3295 8.51067C11.3295 8.34311 11.2699 8.20336 11.1508 8.09142C11.0316 7.97947 10.8886 7.9235 10.7218 7.9235C10.5549 7.9235 10.4163 7.97839 10.3058 8.08817C10.1953 8.19794 10.1407 8.33661 10.1422 8.50417C10.1436 8.67172 10.1981 8.81147 10.3058 8.92342C10.4134 9.03536 10.552 9.09097 10.7218 9.09025ZM18.5575 6.25083C17.693 6.25083 16.9603 5.94533 16.3594 5.33433C15.7578 4.72333 15.457 3.98594 15.457 3.12217C15.457 2.25839 15.7578 1.52208 16.3594 0.91325C16.961 0.304417 17.6941 0 18.5586 0C19.4231 0 20.1608 0.3055 20.7718 0.9165C21.3828 1.5275 21.688 2.26489 21.6873 3.12867C21.6865 3.99244 21.3814 4.72875 20.7718 5.33758C20.1623 5.94642 19.4245 6.25047 18.5586 6.24975M18.564 5.16642C19.1259 5.16642 19.6062 4.96853 20.0048 4.57275C20.4042 4.17625 20.6039 3.69525 20.6039 3.12975C20.6039 2.56425 20.406 2.08181 20.0103 1.68242C19.6145 1.28303 19.1335 1.08333 18.5673 1.08333C18.001 1.08333 17.5222 1.28122 17.1308 1.677C16.7379 2.0735 16.5414 2.5545 16.5414 3.12C16.5414 3.68622 16.7382 4.16867 17.1318 4.56733C17.5247 4.96672 18.0021 5.16642 18.564 5.16642Z" fill="#F2F3F4"/>
</svg>
